<?xml version="1.0" encoding="utf-8"?>
<!-- Generator: Adobe Illustrator 15.0.0, SVG Export Plug-In . SVG Version: 6.00 Build 0)  -->
<!DOCTYPE svg PUBLIC "-//W3C//DTD SVG 1.1//EN" "http://www.w3.org/Graphics/SVG/1.1/DTD/svg11.dtd">
<svg version="1.1" id="Warstwa_1" xmlns="http://www.w3.org/2000/svg" xmlns:xlink="http://www.w3.org/1999/xlink" x="0px" y="0px"
	 width="510.236px" height="413.858px" viewBox="165.827 90.711 510.236 413.858"
	 enable-background="new 165.827 90.711 510.236 413.858" xml:space="preserve">
<g id="XMLID_110_">
	<path id="XMLID_111_" d="M501.911,479.352h-33.122c-3.681,0-7.361-0.92-9.201-2.76c-2.76-1.84-3.68-4.601-5.521-7.36
		l-29.441-76.365h-141.69l-29.441,76.365c-0.921,2.76-2.761,4.601-5.521,7.36c-2.761,1.84-5.521,2.76-9.201,2.76H205.65
		l126.969-315.581h43.243L501.911,479.352z M412.664,362.505l-49.683-128.809c-1.841-3.681-2.761-8.28-4.601-13.801
		s-2.76-10.121-4.601-16.562c-2.76,11.961-6.44,22.082-9.2,29.442l-49.684,128.809h117.768V362.505z"/>
</g>
<g id="XMLID_56_">
	<path id="XMLID_57_" d="M656.481,186.772h-67.165v70.846h-23.921v-70.846H498.23v-22.081h67.165V93.846h23.921v70.845h67.165
		V186.772z"/>
</g>
</svg>
