<svg width="121" height="133" viewBox="0 0 121 133" fill="none" xmlns="http://www.w3.org/2000/svg">
<g clip-path="url(#clip0)">
<path d="M107.8 40.2C109.1 41.6 111 42.5 113.1 42.5C117.1 42.5 120.3 39.3 120.3 35.3C120.3 31.3 117.1 28.1 113.1 28.1C109.1 28.1 105.9 31.3 105.9 35.3C105.9 35.9 106 36.5 106.1 37L97.4 42.2L61.5 22.5V14.3C64.6 13.5 66.9 10.7 66.9 7.29998C66.9 3.29998 63.7 0.0999756 59.7 0.0999756C55.7 0.0999756 52.5 3.29998 52.5 7.29998C52.5 10.7 54.8 13.5 57.9 14.3V22.6L22.4 43.3L14.3 38.7C14.4 38.2 14.5 37.6 14.5 37.1C14.5 33.1 11.3 29.9 7.3 29.9C3.3 29.9 0 33.1 0 37.1C0 41.1 3.2 44.3 7.2 44.3C9.3 44.3 11.2 43.4 12.6 41.9L20.8 46.6V88L13.1 92.6C11.8 90.7 9.6 89.5 7.2 89.5C3.2 89.5 0 92.7 0 96.7C0 100.7 3.2 103.9 7.2 103.9C11.2 103.9 14.4 100.7 14.4 96.7C14.4 96.5 14.4 96.2 14.4 96L22.7 91L57.9 110.4V118.6C54.8 119.4 52.5 122.2 52.5 125.6C52.5 129.6 55.7 132.8 59.7 132.8C63.7 132.8 66.9 129.6 66.9 125.6C66.9 122.2 64.6 119.4 61.5 118.6V110.3L96.7 89.4L105.9 94.6C105.8 94.9 105.8 95.3 105.8 95.7C105.8 99.7 109 102.9 113 102.9C117 102.9 120.2 99.7 120.2 95.7C120.2 91.7 117 88.5 113 88.5C110.7 88.5 108.6 89.6 107.3 91.3L98.6 86.3V45.7L107.8 40.2ZM113.1 31.7C115.1 31.7 116.7 33.3 116.7 35.3C116.7 37.3 115.1 38.9 113.1 38.9C111.1 38.9 109.5 37.3 109.5 35.3C109.5 33.3 111.1 31.7 113.1 31.7ZM7.2 40.7C5.2 40.7 3.6 39.1 3.6 37.1C3.6 35.1 5.2 33.5 7.2 33.5C9.2 33.5 10.8 35.1 10.8 37.1C10.9 39.1 9.2 40.7 7.2 40.7ZM7.2 100.4C5.2 100.4 3.6 98.8 3.6 96.8C3.6 94.8 5.2 93.2 7.2 93.2C9.2 93.2 10.8 94.8 10.8 96.8C10.9 98.8 9.2 100.4 7.2 100.4ZM93.8 44.4L66.8 60.5C65.5 58.8 63.6 57.6 61.5 57.2V26.6L93.8 44.4ZM56.1 7.19998C56.1 5.19998 57.7 3.59998 59.7 3.59998C61.7 3.59998 63.3 5.19998 63.3 7.19998C63.3 9.19998 61.7 10.8 59.7 10.8C57.7 10.9 56.1 9.19998 56.1 7.19998ZM57.9 26.7V57.2C55.8 57.6 53.9 58.8 52.6 60.5L26 45.4L57.9 26.7ZM24.4 48.6L51 63.7C50.8 64.5 50.7 65.2 50.7 66.1C50.7 67.4 51 68.6 51.5 69.8L24.5 86V48.6H24.4ZM26.3 89L53.5 72.7C54.7 73.8 56.2 74.6 57.8 74.9V106.4L26.3 89ZM63.3 125.8C63.3 127.8 61.7 129.4 59.7 129.4C57.7 129.4 56.1 127.8 56.1 125.8C56.1 123.8 57.7 122.2 59.7 122.2C61.7 122.1 63.3 123.8 63.3 125.8ZM59.7 71.5C56.7 71.5 54.3 69.1 54.3 66.1C54.3 63.1 56.7 60.7 59.7 60.7C62.7 60.7 65.1 63.1 65.1 66.1C65.1 69 62.7 71.5 59.7 71.5ZM61.5 106.3V74.9C63.3 74.5 65 73.6 66.2 72.3L93.1 87.5L61.5 106.3ZM95 84.5L68.2 69.3C68.6 68.3 68.8 67.2 68.8 66.1C68.8 65.3 68.7 64.5 68.5 63.8L95 47.9V84.5ZM113.1 92.3C115.1 92.3 116.7 93.9 116.7 95.9C116.7 97.9 115.1 99.5 113.1 99.5C111.1 99.5 109.5 97.9 109.5 95.9C109.5 93.9 111.1 92.3 113.1 92.3Z" fill="white"/>
<path d="M83.3 77.4C83.2 77.3 83.1 77.3 83.1 77.3L79.4 75.4C78.3 74.8 76.9 74.9 75.9 75.5L59.6 85.3L43.8 76.5V57.2L59.8 47.7L76.3 56.9C77.4 57.5 78.8 57.5 79.9 56.8L83.3 54.7C83.4 54.6 83.5 54.5 83.6 54.5L83.7 54.4C84.7 53.7 85.2 52.5 85.1 51.3C85 50.1 84.3 49 83.3 48.4L62.3 36.7C60.6 35.8 58.5 35.8 56.9 36.8L35.5 49.4C33.9 50.4 32.8 52.2 32.8 54.1V79.6C32.8 81.6 33.9 83.4 35.6 84.3L57 96.3C58.7 97.3 60.8 97.2 62.4 96.2L83.3 83.6C84.4 82.9 85.1 81.7 85.1 80.4C85.1 79.2 84.4 78 83.3 77.4ZM77.8 78.6L59.6 89.5L77.8 78.6ZM36.5 79.6V54.1C36.5 53.5 36.8 52.9 37.4 52.5C36.9 52.8 36.5 53.4 36.5 54.1V79.6C36.5 79.9 36.6 80.2 36.7 80.5C36.6 80.3 36.5 79.9 36.5 79.6Z" fill="#209E91"/>
</g>
<defs>
<clipPath id="clip0">
<rect width="120.3" height="133" fill="white"/>
</clipPath>
</defs>
</svg>
