<svg width="202" height="128" viewBox="0 0 202 128" fill="none" xmlns="http://www.w3.org/2000/svg">
<path d="M109.268 45.616L124.844 78H119.168L116.396 71.664H101.568L98.796 78H93.296L108.784 45.616H109.268ZM107.068 59.388L103.548 67.22H114.46L110.984 59.432L109.092 54.988H109.004L107.068 59.388ZM143.789 78.44C142.029 78.44 140.284 78.132 138.553 77.516C136.822 76.9 135.576 76.2107 134.813 75.448L137.145 71.268C137.761 71.8253 138.714 72.412 140.005 73.028C141.325 73.6147 142.586 73.908 143.789 73.908C145.344 73.908 146.605 73.5413 147.573 72.808C148.57 72.0747 149.069 71.0627 149.069 69.772C149.069 68.7747 148.805 67.9093 148.277 67.176C147.749 66.4427 147.104 65.8413 146.341 65.372C145.578 64.8733 144.493 64.272 143.085 63.568C141.413 62.7467 140.269 62.1307 139.653 61.72C136.808 59.8133 135.385 57.1733 135.385 53.8C135.385 51.0133 136.309 48.8867 138.157 47.42C140.005 45.924 142.337 45.176 145.153 45.176C148.174 45.176 150.741 46.0413 152.853 47.772L150.521 51.776C149.964 51.1893 149.172 50.6907 148.145 50.28C147.148 49.84 146.077 49.62 144.933 49.62C143.466 49.62 142.308 49.9573 141.457 50.632C140.636 51.2773 140.225 52.2453 140.225 53.536C140.225 54.4453 140.489 55.2667 141.017 56C141.545 56.704 142.205 57.32 142.997 57.848C143.818 58.376 144.918 59.0213 146.297 59.784C147.617 60.5173 148.629 61.104 149.333 61.544C150.037 61.9547 150.697 62.4533 151.313 63.04C152.164 63.8027 152.853 64.712 153.381 65.768C153.909 66.824 154.173 67.9827 154.173 69.244C154.173 71.2093 153.718 72.8813 152.809 74.26C151.929 75.6387 150.697 76.68 149.113 77.384C147.558 78.088 145.784 78.44 143.789 78.44ZM179.402 78.44C175.354 78.44 172.421 77.2227 170.602 74.788C168.784 72.3533 167.874 68.8187 167.874 64.184V45.66H172.802V64.272C172.802 67.704 173.316 70.168 174.342 71.664C175.369 73.1307 177.056 73.864 179.402 73.864C181.749 73.864 183.421 73.1453 184.418 71.708C185.445 70.2413 185.958 67.7627 185.958 64.272V45.66H190.93V64.184C190.93 68.7893 189.962 72.324 188.026 74.788C186.12 77.2227 183.245 78.44 179.402 78.44Z" fill="#209E91"/>
<path d="M109.268 45.616L110.62 44.9658C110.37 44.4463 109.844 44.116 109.268 44.116V45.616ZM124.844 78V79.5C125.36 79.5 125.839 79.235 126.114 78.7984C126.388 78.3617 126.419 77.8146 126.196 77.3498L124.844 78ZM119.168 78L117.794 78.6012C118.033 79.1472 118.572 79.5 119.168 79.5V78ZM116.396 71.664L117.77 71.0628C117.531 70.5168 116.992 70.164 116.396 70.164V71.664ZM101.568 71.664V70.164C100.972 70.164 100.433 70.5168 100.194 71.0628L101.568 71.664ZM98.796 78V79.5C99.3919 79.5 99.9314 79.1472 100.17 78.6012L98.796 78ZM93.296 78L91.9428 77.3528C91.7205 77.8176 91.7523 78.3639 92.027 78.7998C92.3017 79.2356 92.7808 79.5 93.296 79.5V78ZM108.784 45.616V44.116C108.206 44.116 107.68 44.4477 107.431 44.9688L108.784 45.616ZM107.068 59.388L108.436 60.0029L108.441 59.9921L107.068 59.388ZM103.548 67.22L102.18 66.6051C101.971 67.0692 102.012 67.6075 102.289 68.0348C102.565 68.462 103.039 68.72 103.548 68.72V67.22ZM114.46 67.22V68.72C114.968 68.72 115.442 68.4627 115.718 68.0364C115.995 67.6101 116.037 67.0727 115.83 66.6086L114.46 67.22ZM110.984 59.432L109.604 60.0196C109.607 60.0275 109.611 60.0355 109.614 60.0434L110.984 59.432ZM109.092 54.988L110.472 54.4004C110.237 53.8471 109.693 53.488 109.092 53.488V54.988ZM109.004 54.988V53.488C108.409 53.488 107.871 53.8395 107.631 54.3839L109.004 54.988ZM107.916 46.2662L123.492 78.6502L126.196 77.3498L110.62 44.9658L107.916 46.2662ZM124.844 76.5H119.168V79.5H124.844V76.5ZM120.542 77.3988L117.77 71.0628L115.022 72.2652L117.794 78.6012L120.542 77.3988ZM116.396 70.164H101.568V73.164H116.396V70.164ZM100.194 71.0628L97.4218 77.3988L100.17 78.6012L102.942 72.2652L100.194 71.0628ZM98.796 76.5H93.296V79.5H98.796V76.5ZM94.6492 78.6472L110.137 46.2632L107.431 44.9688L91.9428 77.3528L94.6492 78.6472ZM108.784 47.116H109.268V44.116H108.784V47.116ZM105.7 58.7731L102.18 66.6051L104.916 67.8349L108.436 60.0029L105.7 58.7731ZM103.548 68.72H114.46V65.72H103.548V68.72ZM115.83 66.6086L112.354 58.8206L109.614 60.0434L113.09 67.8314L115.83 66.6086ZM112.364 58.8444L110.472 54.4004L107.712 55.5756L109.604 60.0196L112.364 58.8444ZM109.092 53.488H109.004V56.488H109.092V53.488ZM107.631 54.3839L105.695 58.7839L108.441 59.9921L110.377 55.5921L107.631 54.3839ZM138.553 77.516L139.056 76.1028L138.553 77.516ZM134.813 75.448L133.503 74.7172C133.176 75.3029 133.278 76.0344 133.752 76.5087L134.813 75.448ZM137.145 71.268L138.151 70.1557C137.813 69.8491 137.352 69.7137 136.901 69.7879C136.45 69.8622 136.058 70.1381 135.835 70.5372L137.145 71.268ZM140.005 73.028L139.359 74.3817C139.371 74.3876 139.384 74.3932 139.396 74.3987L140.005 73.028ZM147.573 72.808L146.685 71.5995C146.679 71.6038 146.673 71.608 146.667 71.6124L147.573 72.808ZM148.277 67.176L147.06 68.0525L148.277 67.176ZM146.341 65.372L145.52 66.6275C145.532 66.635 145.543 66.6423 145.555 66.6495L146.341 65.372ZM143.085 63.568L143.756 62.2263L143.746 62.2217L143.085 63.568ZM139.653 61.72L138.818 62.9661L138.821 62.9681L139.653 61.72ZM138.157 47.42L139.09 48.5949C139.093 48.5919 139.097 48.5889 139.101 48.5859L138.157 47.42ZM152.853 47.772L154.149 48.5269C154.52 47.8903 154.374 47.0787 153.804 46.6118L152.853 47.772ZM150.521 51.776L149.434 52.8091C149.759 53.1514 150.226 53.3206 150.695 53.2659C151.164 53.2112 151.58 52.9389 151.817 52.5309L150.521 51.776ZM148.145 50.28L147.54 51.6524C147.556 51.6594 147.572 51.6662 147.588 51.6727L148.145 50.28ZM141.457 50.632L142.384 51.8115L142.389 51.8072L141.457 50.632ZM141.017 56L139.8 56.8765C139.805 56.8844 139.811 56.8922 139.817 56.9L141.017 56ZM142.997 57.848L142.165 59.0961C142.172 59.1007 142.179 59.1053 142.186 59.1098L142.997 57.848ZM146.297 59.784L147.026 58.4728L147.023 58.4714L146.297 59.784ZM149.333 61.544L148.538 62.816C148.551 62.8241 148.564 62.832 148.577 62.8397L149.333 61.544ZM151.313 63.04L150.279 64.1262C150.29 64.1366 150.301 64.1468 150.312 64.1569L151.313 63.04ZM153.381 65.768L154.723 65.0972L153.381 65.768ZM152.809 74.26L151.557 73.4341C151.553 73.4404 151.549 73.4466 151.545 73.4529L152.809 74.26ZM149.113 77.384L148.504 76.0132L148.494 76.0176L149.113 77.384ZM143.789 76.94C142.208 76.94 140.632 76.6639 139.056 76.1028L138.05 78.9292C139.935 79.6001 141.85 79.94 143.789 79.94V76.94ZM139.056 76.1028C137.407 75.516 136.405 74.9187 135.874 74.3873L133.752 76.5087C134.746 77.5026 136.237 78.284 138.05 78.9292L139.056 76.1028ZM136.123 76.1788L138.455 71.9988L135.835 70.5372L133.503 74.7172L136.123 76.1788ZM136.139 72.3803C136.913 73.0807 138.017 73.7413 139.359 74.3817L140.651 71.6743C139.412 71.0827 138.609 70.57 138.151 70.1557L136.139 72.3803ZM139.396 74.3987C140.87 75.0538 142.339 75.408 143.789 75.408V72.408C142.834 72.408 141.78 72.1755 140.614 71.6573L139.396 74.3987ZM143.789 75.408C145.578 75.408 147.185 74.9838 148.479 74.0036L146.667 71.6124C146.025 72.0989 145.109 72.408 143.789 72.408V75.408ZM148.462 74.0165C149.862 72.9866 150.569 71.5159 150.569 69.772H147.569C147.569 70.6094 147.279 71.1627 146.685 71.5995L148.462 74.0165ZM150.569 69.772C150.569 68.4943 150.225 67.3146 149.494 66.2995L147.06 68.0525C147.385 68.5041 147.569 69.055 147.569 69.772H150.569ZM149.494 66.2995C148.852 65.4069 148.06 64.6687 147.127 64.0945L145.555 66.6495C146.147 67.014 146.647 67.4785 147.06 68.0525L149.494 66.2995ZM147.162 64.1165C146.329 63.5716 145.184 62.9405 143.756 62.2264L142.414 64.9096C143.802 65.6035 144.828 66.175 145.52 66.6275L147.162 64.1165ZM143.746 62.2217C142.071 61.3988 141.009 60.8214 140.485 60.4719L138.821 62.9681C139.529 63.4399 140.755 64.0945 142.424 64.9143L143.746 62.2217ZM140.488 60.4739C138.051 58.8406 136.885 56.6639 136.885 53.8H133.885C133.885 57.6828 135.565 60.7861 138.818 62.9661L140.488 60.4739ZM136.885 53.8C136.885 51.3783 137.667 49.724 139.09 48.5949L137.225 46.2451C134.951 48.0493 133.885 50.6483 133.885 53.8H136.885ZM139.101 48.5859C140.635 47.3442 142.615 46.676 145.153 46.676V43.676C142.06 43.676 139.376 44.5038 137.213 46.2541L139.101 48.5859ZM145.153 46.676C147.867 46.676 150.087 47.445 151.902 48.9322L153.804 46.6118C151.395 44.6377 148.482 43.676 145.153 43.676V46.676ZM151.557 47.0171L149.225 51.0211L151.817 52.5309L154.149 48.5269L151.557 47.0171ZM151.609 50.7429C150.858 49.9532 149.86 49.3505 148.702 48.8873L147.588 51.6727C148.483 52.0308 149.069 52.4255 149.434 52.8091L151.609 50.7429ZM148.751 48.9076C147.553 48.3793 146.275 48.12 144.933 48.12V51.12C145.879 51.12 146.742 51.3007 147.54 51.6524L148.751 48.9076ZM144.933 48.12C143.246 48.12 141.721 48.5085 140.525 49.4568L142.389 51.8072C142.895 51.4061 143.687 51.12 144.933 51.12V48.12ZM140.53 49.4525C139.262 50.4488 138.725 51.9048 138.725 53.536H141.725C141.725 52.5859 142.009 52.1058 142.384 51.8115L140.53 49.4525ZM138.725 53.536C138.725 54.7578 139.087 55.8861 139.8 56.8765L142.234 55.1235C141.891 54.6472 141.725 54.1329 141.725 53.536H138.725ZM139.817 56.9C140.455 57.7507 141.243 58.4815 142.165 59.0961L143.829 56.5999C143.167 56.1585 142.635 55.6573 142.217 55.1L139.817 56.9ZM142.186 59.1098C143.047 59.663 144.179 60.3263 145.571 61.0965L147.023 58.4714C145.658 57.7164 144.59 57.089 143.808 56.5862L142.186 59.1098ZM145.569 61.0952C146.881 61.8244 147.867 62.3964 148.538 62.816L150.128 60.272C149.391 59.8116 148.353 59.2103 147.026 58.4728L145.569 61.0952ZM148.577 62.8397C149.176 63.1891 149.743 63.6164 150.279 64.1262L152.348 61.9538C151.651 61.2902 150.898 60.7203 150.089 60.2483L148.577 62.8397ZM150.312 64.1569C151.017 64.7894 151.593 65.5458 152.039 66.4388L154.723 65.0972C154.113 63.8782 153.31 62.816 152.314 61.9231L150.312 64.1569ZM152.039 66.4388C152.456 67.2724 152.673 68.1992 152.673 69.244H155.673C155.673 67.7661 155.362 66.3756 154.723 65.0972L152.039 66.4388ZM152.673 69.244C152.673 70.9724 152.276 72.3439 151.557 73.4341L154.061 75.0859C155.161 73.4187 155.673 71.4463 155.673 69.244H152.673ZM151.545 73.4529C150.833 74.5684 149.836 75.4213 148.504 76.0133L149.722 78.7547C151.558 77.9387 153.025 76.709 154.073 75.0671L151.545 73.4529ZM148.494 76.0176C147.164 76.6199 145.606 76.94 143.789 76.94V79.94C145.961 79.94 147.953 79.5561 149.732 78.7504L148.494 76.0176ZM170.602 74.788L171.804 73.8903V73.8903L170.602 74.788ZM167.874 45.66V44.16C167.046 44.16 166.374 44.8316 166.374 45.66H167.874ZM172.802 45.66H174.302C174.302 44.8316 173.631 44.16 172.802 44.16V45.66ZM174.342 71.664L173.105 72.5128L173.113 72.5242L174.342 71.664ZM184.418 71.708L183.189 70.8478L183.186 70.8529L184.418 71.708ZM185.958 45.66V44.16C185.13 44.16 184.458 44.8316 184.458 45.66H185.958ZM190.93 45.66H192.43C192.43 44.8316 191.759 44.16 190.93 44.16V45.66ZM188.026 74.788L186.847 73.8613L186.845 73.8632L188.026 74.788ZM179.402 76.94C175.657 76.94 173.251 75.8274 171.804 73.8903L169.401 75.6857C171.591 78.6179 175.052 79.94 179.402 79.94V76.94ZM171.804 73.8903C170.257 71.8192 169.374 68.6555 169.374 64.184H166.374C166.374 68.9819 167.31 72.8875 169.401 75.6857L171.804 73.8903ZM169.374 64.184V45.66H166.374V64.184H169.374ZM167.874 47.16H172.802V44.16H167.874V47.16ZM171.302 45.66V64.272H174.302V45.66H171.302ZM171.302 64.272C171.302 67.777 171.812 70.6279 173.106 72.5128L175.579 70.8152C174.819 69.7081 174.302 67.631 174.302 64.272H171.302ZM173.113 72.5242C174.505 74.5122 176.734 75.364 179.402 75.364V72.364C177.377 72.364 176.233 71.7491 175.571 70.8038L173.113 72.5242ZM179.402 75.364C182.056 75.364 184.282 74.5352 185.651 72.5631L183.186 70.8529C182.56 71.7555 181.442 72.364 179.402 72.364V75.364ZM185.647 72.5682C186.952 70.7038 187.458 67.8247 187.458 64.272H184.458C184.458 67.7007 183.938 69.7789 183.189 70.8478L185.647 72.5682ZM187.458 64.272V45.66H184.458V64.272H187.458ZM185.958 47.16H190.93V44.16H185.958V47.16ZM189.43 45.66V64.184H192.43V45.66H189.43ZM189.43 64.184C189.43 68.6053 188.497 71.7604 186.847 73.8613L189.206 75.7147C191.427 72.8876 192.43 68.9733 192.43 64.184H189.43ZM186.845 73.8632C185.291 75.8476 182.907 76.94 179.402 76.94V79.94C183.583 79.94 186.948 78.5977 189.207 75.7128L186.845 73.8632Z" fill="#209E91"/>
<g clip-path="url(#clip0)">
<path d="M63.4038 110.444V103.215L94 85.1415L90.9404 83.239L63.4038 99.5049V81.1463L61.7784 82.0976L60.153 81.1463V99.6L32.234 84.2854L48.1057 74.8683L46.5759 74.1073V72.1098L30.6085 81.6219V48.8049L46.5759 57.8415V55.7488L48.0101 54.9878L31.9471 45.9512L60.153 29.4951V47.9488L61.7784 46.9976L63.4038 47.8537V29.4L90.4623 44.239L93.3307 42.2415L63.4038 25.7854V18.5561C66.1766 17.8902 68.1845 15.322 68.1845 12.3732C68.1845 8.85366 65.3161 6 61.7784 6C58.2407 6 55.3723 8.85366 55.3723 12.3732C55.3723 15.322 57.3802 17.7951 60.153 18.5561V25.7854L28.7919 44.0488L21.6209 40.0537C21.7165 39.578 21.8121 39.1024 21.8121 38.6268C21.8121 35.1073 18.9438 32.2537 15.4061 32.2537C11.8684 32.2537 9 35.1073 9 38.6268C9 42.1463 11.8684 45 15.4061 45C17.3183 45 18.9438 44.1439 20.1867 42.9073L27.4533 46.9976V83.4293L20.6648 87.4244C19.4218 85.9024 17.6052 84.761 15.4061 84.761C11.8684 84.761 9 87.6146 9 91.1341C9 94.6537 11.8684 97.5073 15.4061 97.5073C18.9438 97.5073 21.8121 94.6537 21.8121 91.1341C21.8121 90.9439 21.8121 90.6585 21.8121 90.4683L29.1744 86.0927L60.2486 103.215V110.444C57.4758 111.11 55.4679 113.678 55.4679 116.627C55.4679 120.146 58.3363 123 61.874 123C65.4117 123 68.2801 120.146 68.2801 116.627C68.1845 113.678 66.1766 111.205 63.4038 110.444ZM58.6232 12.3732C58.6232 10.661 60.0574 9.23415 61.7784 9.23415C63.4994 9.23415 64.9336 10.661 64.9336 12.3732C64.9336 14.0854 63.5951 15.5122 61.7784 15.5122C59.9618 15.5122 58.6232 14.0854 58.6232 12.3732ZM15.4061 41.861C13.685 41.861 12.2508 40.4341 12.2508 38.722C12.2508 37.0098 13.685 35.5829 15.4061 35.5829C17.1271 35.5829 18.5613 37.0098 18.5613 38.722C18.5613 40.4341 17.1271 41.861 15.4061 41.861ZM15.4061 94.3683C13.685 94.3683 12.2508 92.9415 12.2508 91.2293C12.2508 89.5171 13.685 88.0902 15.4061 88.0902C17.1271 88.0902 18.5613 89.5171 18.5613 91.2293C18.5613 92.9415 17.1271 94.3683 15.4061 94.3683ZM61.7784 119.861C60.0574 119.861 58.6232 118.434 58.6232 116.722C58.6232 115.01 60.0574 113.583 61.7784 113.583C63.4994 113.583 64.9336 115.01 64.9336 116.722C65.0292 118.434 63.5951 119.861 61.7784 119.861Z" fill="#212121"/>
<path d="M82.6221 74.0122C82.5264 73.9171 82.5264 73.9171 82.4308 73.9171L79.18 72.2049C78.2239 71.7293 76.9809 71.7293 76.0247 72.3L61.5872 80.9561L47.6277 73.1561V56.3195L61.7784 47.9488L76.4072 56.0341C77.459 56.6049 78.6063 56.6049 79.6581 55.939L82.6221 54.1317C82.7177 54.0366 82.8133 54.0366 82.9089 53.9415L83.0045 53.8463C83.865 53.1805 84.3431 52.1341 84.2475 51.0878C84.1519 50.0415 83.5782 49.0902 82.6221 48.5195L64.0731 38.3415C62.5433 37.4854 60.7267 37.5805 59.2925 38.4366L40.4567 49.4707C39.0225 50.3268 38.0664 51.8488 38.0664 53.561V76.0098C38.0664 77.7219 39.0225 79.339 40.5523 80.1951L59.3881 90.6585C60.9179 91.5146 62.7345 91.4195 64.1687 90.5634L82.7177 79.5293C83.6738 78.9585 84.2475 77.9122 84.2475 76.7707C84.2475 75.6293 83.6738 74.5829 82.6221 74.0122Z" fill="#209E91"/>
</g>
<defs>
<clipPath id="clip0">
<rect width="85" height="117" fill="white" transform="translate(9 6)"/>
</clipPath>
</defs>
</svg>
