<?xml version="1.0" encoding="iso-8859-1"?>
<!-- Generator: Adobe Illustrator 19.0.0, SVG Export Plug-In . SVG Version: 6.00 Build 0)  -->
<svg version="1.1" id="Capa_1" xmlns="http://www.w3.org/2000/svg" xmlns:xlink="http://www.w3.org/1999/xlink" x="0px" y="0px"
	 viewBox="0 0 512 512" style="enable-background:new 0 0 512 512;" xml:space="preserve">
<g>
	<g>
		<path d="M256,118.812c-75.646,0-137.188,61.542-137.188,137.188S180.353,393.188,256,393.188S393.188,331.646,393.188,256
			S331.646,118.812,256,118.812z M256,363.177c-59.097,0-107.177-48.08-107.177-107.177S196.902,148.823,256,148.823
			S363.177,196.903,363.177,256S315.097,363.177,256,363.177z"/>
	</g>
</g>
<g>
	<g>
		<path d="M512,256l-54.974-45.899l29.683-65.228l-69.512-17.411l-1.558-71.611l-70.185,14.363l-32.5-63.875L256,49.831
			L199.044,6.34l-32.5,63.874L96.361,55.85l-1.56,71.611l-69.512,17.411l29.683,65.229L0,256l54.974,45.899l-29.684,65.228
			l69.512,17.411l1.558,71.611l70.185-14.363l32.501,63.875L256,462.169l56.955,43.491l32.5-63.875l70.184,14.363l1.56-71.611
			l69.512-17.411l-29.683-65.228L512,256z M387.692,360.991l-1.273,58.546l-57.343-11.735l-26.533,52.147L256,424.41l-46.541,35.539
			l-26.534-52.147l-57.343,11.735l-1.273-58.546l-56.78-14.222l24.233-53.251l-44.934-37.517l44.934-37.517l-24.233-53.252
			l56.78-14.222l1.273-58.546l57.343,11.735l26.533-52.146L256,87.591l46.541-35.539l26.534,52.147l57.343-11.735l1.273,58.546
			l56.78,14.222l-24.233,53.251L465.174,256l-44.934,37.517l24.233,53.251L387.692,360.991z"/>
	</g>
</g>
<g>
</g>
<g>
</g>
<g>
</g>
<g>
</g>
<g>
</g>
<g>
</g>
<g>
</g>
<g>
</g>
<g>
</g>
<g>
</g>
<g>
</g>
<g>
</g>
<g>
</g>
<g>
</g>
<g>
</g>
</svg>
